<svg width="16" height="16" viewBox="0 0 16 16" fill="none" xmlns="http://www.w3.org/2000/svg">
<path d="M2.12258 3.26C1.77591 3.26 1.48258 3.14 1.24258 2.9C1.00258 2.66 0.882578 2.36667 0.882578 2.02C0.882578 1.67333 1.00258 1.38 1.24258 1.14C1.48258 0.899999 1.77591 0.779999 2.12258 0.779999C2.45591 0.779999 2.73591 0.899999 2.96258 1.14C3.20258 1.38 3.32258 1.67333 3.32258 2.02C3.32258 2.36667 3.20258 2.66 2.96258 2.9C2.73591 3.14 2.45591 3.26 2.12258 3.26ZM3.00258 5.04V16H1.18258V5.04H3.00258ZM11.4445 4.84C12.7778 4.84 13.8578 5.24667 14.6845 6.06C15.5111 6.86 15.9245 8.02 15.9245 9.54V16H14.1245V9.8C14.1245 8.70667 13.8511 7.87333 13.3045 7.3C12.7578 6.71333 12.0111 6.42 11.0645 6.42C10.1045 6.42 9.33779 6.72 8.76445 7.32C8.20445 7.92 7.92445 8.79333 7.92445 9.94V16H6.10445V5.04H7.92445V6.6C8.28445 6.04 8.77112 5.60667 9.38445 5.3C10.0111 4.99333 10.6978 4.84 11.4445 4.84Z" fill="black"/>
</svg>
