<svg width="113" height="44" viewBox="0 0 113 44" fill="none" xmlns="http://www.w3.org/2000/svg">
<path fill-rule="evenodd" clip-rule="evenodd" d="M1.04631 20.2555C0.348475 20.8094 0 21.5678 0 22.5292C0 23.454 0.348464 24.1927 1.04631 24.7482L13.5596 34.293C13.7179 34.4407 13.9555 34.5147 14.2735 34.5147C14.8121 34.5147 15.3279 34.2466 15.8199 33.7099C16.312 33.1741 16.5576 32.5362 16.5576 31.796C16.5576 31.0193 16.3187 30.4836 15.8414 30.1868L5.8055 22.5298L15.8414 14.8738C16.3187 14.5045 16.5576 13.9677 16.5576 13.2646C16.5576 12.5249 16.3107 11.8786 15.8199 11.3231C15.3279 10.7675 14.8121 10.4906 14.2735 10.4906C13.9554 10.4906 13.7179 10.5646 13.5596 10.7123L1.04631 20.2555ZM33.4903 31.7946C33.4903 32.5343 33.7359 33.1728 34.2279 33.7085C34.72 34.2452 35.2344 34.5133 35.7744 34.5133C36.0593 34.5133 36.2807 34.4392 36.4404 34.2916L48.9537 24.7479C49.6506 24.2294 50 23.4908 50 22.5278C50 21.5681 49.6506 20.8096 48.9537 20.2541L36.4404 10.7109C36.2812 10.5643 36.0593 10.4892 35.7744 10.4892C35.2349 10.4892 34.72 10.7662 34.2279 11.3217C33.7359 11.8767 33.4903 12.523 33.4903 13.2632C33.4903 13.9294 33.7117 14.4651 34.1564 14.8725L44.1954 22.5284L34.1564 30.1854C33.7122 30.5193 33.4903 31.0545 33.4903 31.7946Z" fill="#1D1B1B"/>
<path d="M19.1873 39.3014C19.1452 39.0098 19.1524 38.7276 19.2088 38.4533L27.9357 5.29739C28.0905 4.59163 28.5115 4.17068 29.2004 4.03506C29.7005 3.93595 30.1831 4.04706 30.6484 4.36734C31.1132 4.68919 31.3883 5.14144 31.472 5.72461C31.5194 6.05323 31.4992 6.35786 31.412 6.63745L22.7078 39.6184C22.5267 40.3664 22.061 40.815 21.3108 40.9636C20.7781 41.069 20.311 40.9454 19.9057 40.5943C19.5009 40.2422 19.262 39.8116 19.1873 39.3014Z" fill="#EC4D37"/>
<path d="M68.4902 22.92L74.4502 9H78.6102L71.2102 25.4V34H67.2102V25.4L59.8102 9H63.9702L69.9302 22.92H68.4902Z" fill="#1D1B1B"/>
<path d="M97.5795 33.56C96.5929 33.9333 95.5662 34.2 94.4995 34.36C93.4329 34.52 92.1929 34.6 90.7795 34.6C88.9129 34.6 87.3795 34.4 86.1795 34C85.0062 33.5733 84.0862 32.88 83.4195 31.92C82.7529 30.9333 82.2862 29.6 82.0195 27.92C81.7529 26.2133 81.6195 24.08 81.6195 21.52C81.6195 18.9067 81.7529 16.76 82.0195 15.08C82.3129 13.3733 82.8062 12.04 83.4995 11.08C84.1929 10.0933 85.1529 9.4 86.3795 9C87.6329 8.6 89.2329 8.4 91.1795 8.4C91.7395 8.4 92.3795 8.44 93.0995 8.52C93.8462 8.57333 94.5662 8.66666 95.2595 8.8C95.9795 8.90666 96.5795 9.05333 97.0595 9.24L96.5395 12.52C95.8729 12.36 95.1395 12.2267 94.3395 12.12C93.5395 12.0133 92.7795 11.9333 92.0595 11.88C91.3395 11.8267 90.7529 11.8 90.2995 11.8C88.7529 11.8 87.6329 11.9867 86.9395 12.36C86.2462 12.7067 85.8995 13.5333 85.8995 14.84V30.68C86.5929 30.8667 87.3395 31.0133 88.1395 31.12C88.9662 31.2267 89.8062 31.28 90.6595 31.28C91.7795 31.28 92.8862 31.1867 93.9795 31C95.0995 30.8133 96.1662 30.5733 97.1795 30.28L97.5795 33.56Z" fill="#FF0000"/>
</svg>
