<svg width="58" height="58" viewBox="0 0 58 58" fill="none" xmlns="http://www.w3.org/2000/svg">
<path d="M22.5275 0.00115567C22.3838 0.00827624 22.2417 0.0374057 22.1071 0.088222C14.4192 2.93743 10 10.4056 10 18.9092C10 29.974 19.0033 38.9772 30.068 38.9772C38.5716 38.9772 46.0404 34.5434 48.889 26.8552C49.0126 26.5167 49 26.1428 48.8537 25.8134C48.7074 25.4836 48.4391 25.2237 48.1048 25.0881C47.7704 24.9524 47.3969 24.9518 47.0623 25.0864C45.1083 25.8723 42.977 26.2756 40.7111 26.2756C31.3574 26.2756 22.688 17.6212 22.688 8.2666C22.688 6.00062 23.1059 3.85512 23.8913 1.90118C24.0642 1.46133 24.002 0.964152 23.7266 0.580358C23.4515 0.19682 23.0003 -0.021326 22.5284 0.00165032L22.5275 0.00115567ZM20.3959 4.03199C20.1052 5.40526 19.9029 6.81284 19.9029 8.26616C19.9029 19.2978 29.6792 29.0592 40.71 29.0592C42.1675 29.0592 43.5669 28.873 44.9442 28.5808C41.9674 33.4422 36.5143 36.1933 30.0672 36.1933C20.5071 36.1933 12.7832 28.4698 12.7832 18.9093C12.7832 12.4649 15.5378 7.01017 20.3957 4.03229L20.3959 4.03199Z" fill="black"/>
</svg>
