<svg width="59" height="59" viewBox="0 0 59 59" fill="none" xmlns="http://www.w3.org/2000/svg">
<path d="M27.5126 2.9885C27.5126 1.89044 28.403 1 29.501 1C30.5991 1 31.4895 1.89047 31.4895 2.9885V13.5934C31.4895 14.6915 30.5991 15.5819 29.501 15.5819C28.4025 15.5819 27.5126 14.6914 27.5126 13.5934V2.9885Z" stroke="black" stroke-width="2"/>
<path d="M9.34788 9.34685C9.73571 8.95896 10.247 8.76709 10.7561 8.76709C11.2646 8.76709 11.7765 8.9585 12.1648 9.34685L19.6628 16.8449C20.4391 17.6217 20.4396 18.8852 19.6628 19.6619C18.8861 20.4386 17.6221 20.4386 16.8459 19.6619L9.34788 12.1638C8.57118 11.3871 8.57118 10.1231 9.34788 9.34685Z" stroke="black" stroke-width="2"/>
<path d="M46.8367 9.34685C47.225 8.95896 47.7358 8.76709 48.2448 8.76709C48.7533 8.76709 49.2648 8.95803 49.6531 9.34637C50.4294 10.1231 50.4294 11.3871 49.6531 12.1634L42.1556 19.6614C41.3789 20.4381 40.1149 20.4381 39.3387 19.6614C38.562 18.8847 38.562 17.6207 39.3387 16.8444L46.8367 9.34685Z" stroke="black" stroke-width="2"/>
<path d="M21.5466 29.4994C21.5466 25.1068 25.1074 21.546 29.4999 21.546C33.8923 21.546 37.4532 25.1068 37.4532 29.4994C37.4532 33.8919 33.8923 37.4527 29.4999 37.4527C25.1074 37.4527 21.5466 33.8919 21.5466 29.4994Z" stroke="black" stroke-width="2"/>
<path d="M0.999982 29.4994C0.999982 28.4013 1.89044 27.5109 2.98845 27.5109H13.5933C14.6913 27.5109 15.5817 28.4013 15.5817 29.4994C15.5817 30.5974 14.6913 31.4878 13.5933 31.4878H2.98845C1.89041 31.4878 0.999982 30.5974 0.999982 29.4994Z" stroke="black" stroke-width="2"/>
<path d="M43.4182 29.4994C43.4182 28.4013 44.3087 27.5109 45.4067 27.5109H56.0115C57.1096 27.5109 58 28.4013 58 29.4994C58 30.5974 57.1095 31.4878 56.0115 31.4878H45.4067C44.3087 31.4878 43.4182 30.5974 43.4182 29.4994Z" stroke="black" stroke-width="2"/>
<path d="M16.8445 39.3371C17.2323 38.9492 17.7436 38.7574 18.2526 38.7574C18.7611 38.7574 19.2731 38.9488 19.6614 39.3371C20.4376 40.1139 20.4376 41.3779 19.6614 42.1541L12.1634 49.6522C11.3867 50.4289 10.1227 50.4289 9.34646 49.6522C8.56976 48.8754 8.56976 47.6119 9.34646 46.8352L16.8445 39.3371Z" stroke="black" stroke-width="2"/>
<path d="M39.3377 39.3371C39.7256 38.9492 40.2369 38.7574 40.7459 38.7574C41.2544 38.7574 41.7663 38.9488 42.1547 39.3371L49.6522 46.8352C50.4289 47.612 50.429 48.8755 49.6522 49.6522C48.8754 50.4289 47.6115 50.4289 46.8352 49.6522L39.3377 42.1541C38.561 41.3773 38.561 40.1138 39.3377 39.3371Z" stroke="black" stroke-width="2"/>
<path d="M27.511 45.4066C27.511 44.3085 28.4015 43.4181 29.4995 43.4181C30.5976 43.4181 31.488 44.3086 31.488 45.4066V56.0115C31.488 57.1096 30.5975 58 29.4995 58C28.401 58 27.511 57.1095 27.511 56.0115V45.4066Z" stroke="black" stroke-width="2"/>
</svg>
